<?xml version="1.0" encoding="utf-8"?>
<svg viewBox="79.465 124.107 272.321 364.285" xmlns="http://www.w3.org/2000/svg">
  <text style="white-space: pre; fill: rgb(51, 51, 51); font-family: Arial, sans-serif; font-size: 25px;" x="148.214" y="185.714" transform="matrix(1, 0, 0, 1, 0, -7.105427357601002e-15)">Hi</text>
  <text style="white-space: pre; fill: rgb(51, 51, 51); font-family: Arial, sans-serif; font-size: 25px;" x="105.357" y="308.929" transform="matrix(1, 0, 0, 1, 0, -7.105427357601002e-15)">testy<tspan x="105.35700225830078" dy="1em">​</tspan><tspan x="105.35700225830078" dy="1em">​</tspan></text>
  <path style="fill: none; stroke: rgb(0, 0, 0);" d="M 133.036 398.214 C 130.539 400.711 128.22 414.828 131.25 417.857 C 137.262 423.869 147.328 430.36 158.036 435.714 C 171.23 442.311 189.136 449.739 204.464 453.571 C 212.637 455.615 222.378 454.483 230.357 457.143 C 238.299 459.79 256.567 459.716 264.286 457.143 C 278.001 452.571 286.714 445.429 296.429 435.714 C 303.337 428.806 317.857 416.256 317.857 407.143" transform="matrix(1, 0, 0, 1, 0, -7.105427357601002e-15)"/>
  <path style="fill: none; stroke: rgb(0, 0, 0);" d="M 287.5 325.893 C 278.431 344.03 272.285 367.913 259.821 386.607 C 256.485 391.612 250.959 405.357 247.321 405.357" transform="matrix(1, 0, 0, 1, 0, -7.105427357601002e-15)"/>
  <path style="fill: none; stroke: rgb(0, 0, 0);" d="M 231.25 327.679 C 225.248 327.679 223.259 332.708 218.75 335.714 C 207.644 343.118 194.922 352.399 186.607 360.714 C 183.408 363.914 172.664 378.571 171.429 378.571" transform="matrix(1, 0, 0, 1, 0, -7.105427357601002e-15)"/>
</svg>
